<svg width="51" height="51" viewBox="0 0 51 51" fill="none" xmlns="http://www.w3.org/2000/svg">
<g clip-path="url(#clip0_1_14)">
<path d="M25.5 0C13.1214 0 2.80538 8.82109 0.488707 20.5195H7.56721C9.74823 12.6546 16.9406 6.87306 25.5 6.87306C30.6454 6.87306 35.2951 8.96385 38.6609 12.3391L30.4805 20.5195H51V0L43.5293 7.47069C38.9153 2.85519 32.5422 0 25.5 0ZM0 30.4805V51L7.47069 43.5293C12.0847 48.1448 18.4578 51 25.5 51C37.8786 51 48.1946 42.1789 50.5113 30.4805H43.4328C41.2518 38.3453 34.0593 44.1269 25.5 44.1269C20.3546 44.1269 15.7049 42.0362 12.3391 38.6609L20.5195 30.4805H0V30.4805Z" fill="white"/>
</g>
<defs>
<clipPath id="clip0_1_14">
<rect width="51" height="51" fill="white"/>
</clipPath>
</defs>
</svg>
